<svg width="24" height="34" viewBox="0 0 24 34" fill="none" xmlns="http://www.w3.org/2000/svg">
<g filter="url(#filter0_d_40_6)">
<path d="M19 6.76923C19 10.5078 15.866 24 12 24C8.13399 24 5 10.5078 5 6.76923C5 3.03069 8.13401 0 12 0C15.866 0 19 3.03069 19 6.76923Z" fill="#FFCB74"/>
</g>
<path d="M16 8C16 10.2091 14.2091 12 12 12C9.79086 12 8 10.2091 8 8C8 5.79086 9.79086 4 12 4C14.2091 4 16 5.79086 16 8Z" fill="url(#paint0_linear_40_6)"/>
<defs>
<filter id="filter0_d_40_6" x="0.0769229" y="0" width="23.8462" height="33.8462" filterUnits="userSpaceOnUse" color-interpolation-filters="sRGB">
<feFlood flood-opacity="0" result="BackgroundImageFix"/>
<feColorMatrix in="SourceAlpha" type="matrix" values="0 0 0 0 0 0 0 0 0 0 0 0 0 0 0 0 0 0 127 0" result="hardAlpha"/>
<feOffset dy="4.92308"/>
<feGaussianBlur stdDeviation="2.46154"/>
<feComposite in2="hardAlpha" operator="out"/>
<feColorMatrix type="matrix" values="0 0 0 0 0 0 0 0 0 0 0 0 0 0 0 0 0 0 0.25 0"/>
<feBlend mode="normal" in2="BackgroundImageFix" result="effect1_dropShadow_40_6"/>
<feBlend mode="normal" in="SourceGraphic" in2="effect1_dropShadow_40_6" result="shape"/>
</filter>
<linearGradient id="paint0_linear_40_6" x1="12" y1="4" x2="12" y2="12" gradientUnits="userSpaceOnUse">
<stop stop-color="#2F2F2F"/>
<stop offset="1" stop-color="#FFCB74"/>
</linearGradient>
</defs>
</svg>
