<svg width="201" height="101" viewBox="0 0 201 101" fill="none" xmlns="http://www.w3.org/2000/svg">
<g filter="url(#filter0_d_53_2)">
<path fill-rule="evenodd" clip-rule="evenodd" d="M185.495 30.1202C190.187 30.1202 193.991 13.1873 193.991 8.49544C193.991 3.80354 190.187 0 185.495 0C180.804 0 177 3.80354 177 8.49544C177 13.1873 180.804 30.1202 185.495 30.1202ZM188 33.9956V65.9956H183V33.9956H188ZM128.288 36.7917C126.84 37.7263 125.84 38.9441 125.287 40.4448H124.971V35.8636H120.469V66.1944H125.129V47.0007C125.129 45.6316 125.458 44.4139 126.116 43.3476C126.788 42.2681 127.696 41.4256 128.841 40.82C130 40.2013 131.316 39.8919 132.791 39.8919C133.409 39.8919 133.995 39.938 134.548 40.0301C135.114 40.1091 135.476 40.1684 135.634 40.2079V35.4687C135.371 35.4423 134.983 35.4226 134.469 35.4094C133.956 35.3962 133.528 35.3897 133.186 35.3897C131.369 35.3897 129.737 35.857 128.288 36.7917ZM48.9719 64.8714C51.0387 66.1747 53.4413 66.8263 56.1795 66.8263C58.9177 66.8263 61.3137 66.1747 63.3674 64.8714C65.4342 63.5681 67.0403 61.7448 68.1856 59.4016C69.3441 57.0583 69.9233 54.3201 69.9233 51.187C69.9233 48.0275 69.3441 45.2696 68.1856 42.9131C67.0403 40.5567 65.4342 38.7268 63.3674 37.4236C61.3137 36.1203 58.9177 35.4687 56.1795 35.4687C53.4413 35.4687 51.0387 36.1203 48.9719 37.4236C46.9183 38.7268 45.3122 40.5567 44.1537 42.9131C43.0084 45.2696 42.4357 48.0275 42.4357 51.187C42.4357 54.3201 43.0084 57.0583 44.1537 59.4016C45.3122 61.7448 46.9183 63.5681 48.9719 64.8714ZM61.3137 61.0405C59.971 62.1068 58.2594 62.64 56.1795 62.64C54.0995 62.64 52.3881 62.1068 51.0453 61.0405C49.7025 59.9742 48.7086 58.5722 48.0635 56.8345C47.4185 55.0968 47.096 53.2143 47.096 51.187C47.096 49.1596 47.4185 47.2706 48.0635 45.5197C48.7086 43.7688 49.7025 42.3537 51.0453 41.2742C52.3881 40.1947 54.0995 39.6549 56.1795 39.6549C58.2594 39.6549 59.971 40.1947 61.3137 41.2742C62.6565 42.3537 63.6504 43.7688 64.2955 45.5197C64.9405 47.2706 65.2631 49.1596 65.2631 51.187C65.2631 53.2143 64.9405 55.0968 64.2955 56.8345C63.6504 58.5722 62.6565 59.9742 61.3137 61.0405ZM29.8761 63.5096L29.9851 35.469H25.0879V75.9104C25.0879 77.5823 24.8246 78.9975 24.298 80.156C23.7846 81.3013 23.0343 82.1701 22.0469 82.7625C21.0596 83.3549 19.8616 83.6511 18.453 83.6511C17.1761 83.6511 16.0374 83.4142 15.0369 82.9402C14.0364 82.4663 13.2465 81.8081 12.6673 80.9656C12.1012 80.1099 11.8182 79.1094 11.8182 77.9641H7C7 80.0309 7.49367 81.8147 8.481 83.3154C9.46833 84.8162 10.8243 85.9746 12.5488 86.7908C14.2733 87.5939 16.2414 87.9954 18.453 87.9954C20.7963 87.9954 22.8302 87.5281 24.5548 86.5934C26.2793 85.6587 27.6155 84.2896 28.5633 82.4861C28.7214 82.1853 28.8632 81.9308 28.9899 81.7037C29.6227 80.5685 29.8761 80.114 29.8761 77.9641V63.5096ZM100.468 58.4735C101.298 57.2492 101.712 55.6892 101.712 53.7935V35.8636H106.373V66.1944H101.712V61.0603H101.397C100.686 62.6005 99.5798 63.9104 98.0791 64.9899C96.5783 66.0562 94.6826 66.5893 92.392 66.5893C90.4963 66.5893 88.8113 66.1747 87.3369 65.3453C85.8624 64.5028 84.704 63.239 83.8615 61.554C83.0189 59.8557 82.5977 57.7165 82.5977 55.1363V35.8636H87.2579V54.8204C87.2579 57.032 87.8766 58.796 89.1141 60.1124C90.3647 61.4289 91.9576 62.0871 93.8927 62.0871C95.0512 62.0871 96.2295 61.7909 97.4275 61.1985C98.6386 60.6061 99.6522 59.6978 100.468 58.4735ZM152.386 43.4463C151.715 44.6838 151.379 46.1845 151.379 47.9485V66.1944H146.719V35.8636H151.221V40.6028H151.616C152.327 39.0625 153.406 37.8251 154.855 36.8904C156.303 35.9426 158.172 35.4687 160.463 35.4687C162.516 35.4687 164.313 35.8899 165.853 36.7324C167.394 37.5618 168.592 38.8256 169.447 40.5238C170.303 42.2088 170.731 44.3415 170.731 46.9217V66.1944H166.071V47.2377C166.071 44.8549 165.452 42.9987 164.214 41.6691C162.977 40.3263 161.279 39.6549 159.12 39.6549C157.632 39.6549 156.303 39.9775 155.131 40.6225C153.973 41.2676 153.058 42.2089 152.386 43.4463Z" fill="#2F2F2F"/>
</g>
<path d="M190 8.5C190 10.9853 187.985 13 185.5 13C183.015 13 181 10.9853 181 8.5C181 6.01472 183.015 4 185.5 4C187.985 4 190 6.01472 190 8.5Z" fill="url(#paint0_linear_53_2)"/>
<g filter="url(#filter1_d_53_2)">
<path fill-rule="evenodd" clip-rule="evenodd" d="M185.495 30.1202C190.187 30.1202 193.991 13.1873 193.991 8.49544C193.991 3.80354 190.187 0 185.495 0C180.804 0 177 3.80354 177 8.49544C177 13.1873 180.804 30.1202 185.495 30.1202ZM188 33.9956V65.9956H183V33.9956H188ZM128.288 36.7917C126.84 37.7263 125.84 38.9441 125.287 40.4448H124.971V35.8636H120.469V66.1944H125.129V47.0007C125.129 45.6316 125.458 44.4139 126.116 43.3476C126.788 42.2681 127.696 41.4256 128.841 40.82C130 40.2013 131.316 39.8919 132.791 39.8919C133.409 39.8919 133.995 39.938 134.548 40.0301C135.114 40.1091 135.476 40.1684 135.634 40.2079V35.4687C135.371 35.4423 134.983 35.4226 134.469 35.4094C133.956 35.3962 133.528 35.3897 133.186 35.3897C131.369 35.3897 129.737 35.857 128.288 36.7917ZM48.9719 64.8714C51.0387 66.1747 53.4413 66.8263 56.1795 66.8263C58.9177 66.8263 61.3137 66.1747 63.3674 64.8714C65.4342 63.5681 67.0403 61.7448 68.1856 59.4016C69.3441 57.0583 69.9233 54.3201 69.9233 51.187C69.9233 48.0275 69.3441 45.2696 68.1856 42.9131C67.0403 40.5567 65.4342 38.7268 63.3674 37.4236C61.3137 36.1203 58.9177 35.4687 56.1795 35.4687C53.4413 35.4687 51.0387 36.1203 48.9719 37.4236C46.9183 38.7268 45.3122 40.5567 44.1537 42.9131C43.0084 45.2696 42.4357 48.0275 42.4357 51.187C42.4357 54.3201 43.0084 57.0583 44.1537 59.4016C45.3122 61.7448 46.9183 63.5681 48.9719 64.8714ZM61.3137 61.0405C59.971 62.1068 58.2594 62.64 56.1795 62.64C54.0995 62.64 52.3881 62.1068 51.0453 61.0405C49.7025 59.9742 48.7086 58.5722 48.0635 56.8345C47.4185 55.0968 47.096 53.2143 47.096 51.187C47.096 49.1596 47.4185 47.2706 48.0635 45.5197C48.7086 43.7688 49.7025 42.3537 51.0453 41.2742C52.3881 40.1947 54.0995 39.6549 56.1795 39.6549C58.2594 39.6549 59.971 40.1947 61.3137 41.2742C62.6565 42.3537 63.6504 43.7688 64.2955 45.5197C64.9405 47.2706 65.2631 49.1596 65.2631 51.187C65.2631 53.2143 64.9405 55.0968 64.2955 56.8345C63.6504 58.5722 62.6565 59.9742 61.3137 61.0405ZM29.8761 63.5096L29.9851 35.469H25.0879V75.9104C25.0879 77.5823 24.8246 78.9975 24.298 80.156C23.7846 81.3013 23.0343 82.1701 22.0469 82.7625C21.0596 83.3549 19.8616 83.6511 18.453 83.6511C17.1761 83.6511 16.0374 83.4142 15.0369 82.9402C14.0364 82.4663 13.2465 81.8081 12.6673 80.9656C12.1012 80.1099 11.8182 79.1094 11.8182 77.9641H7C7 80.0309 7.49367 81.8147 8.481 83.3154C9.46833 84.8162 10.8243 85.9746 12.5488 86.7908C14.2733 87.5939 16.2414 87.9954 18.453 87.9954C20.7963 87.9954 22.8302 87.5281 24.5548 86.5934C26.2793 85.6587 27.6155 84.2896 28.5633 82.4861C28.7214 82.1853 28.8632 81.9308 28.9899 81.7037C29.6227 80.5685 29.8761 80.114 29.8761 77.9641V63.5096ZM100.468 58.4735C101.298 57.2492 101.712 55.6892 101.712 53.7935V35.8636H106.373V66.1944H101.712V61.0603H101.397C100.686 62.6005 99.5798 63.9104 98.0791 64.9899C96.5783 66.0562 94.6826 66.5893 92.392 66.5893C90.4963 66.5893 88.8113 66.1747 87.3369 65.3453C85.8624 64.5028 84.704 63.239 83.8615 61.554C83.0189 59.8557 82.5977 57.7165 82.5977 55.1363V35.8636H87.2579V54.8204C87.2579 57.032 87.8766 58.796 89.1141 60.1124C90.3647 61.4289 91.9576 62.0871 93.8927 62.0871C95.0512 62.0871 96.2295 61.7909 97.4275 61.1985C98.6386 60.6061 99.6522 59.6978 100.468 58.4735ZM152.386 43.4463C151.715 44.6838 151.379 46.1845 151.379 47.9485V66.1944H146.719V35.8636H151.221V40.6028H151.616C152.327 39.0625 153.406 37.8251 154.855 36.8904C156.303 35.9426 158.172 35.4687 160.463 35.4687C162.516 35.4687 164.313 35.8899 165.853 36.7324C167.394 37.5618 168.592 38.8256 169.447 40.5238C170.303 42.2088 170.731 44.3415 170.731 46.9217V66.1944H166.071V47.2377C166.071 44.8549 165.452 42.9987 164.214 41.6691C162.977 40.3263 161.279 39.6549 159.12 39.6549C157.632 39.6549 156.303 39.9775 155.131 40.6225C153.973 41.2676 153.058 42.2089 152.386 43.4463Z" fill="#2F2F2F"/>
</g>
<path d="M190 8.5C190 10.9853 187.985 13 185.5 13C183.015 13 181 10.9853 181 8.5C181 6.01472 183.015 4 185.5 4C187.985 4 190 6.01472 190 8.5Z" fill="url(#paint1_linear_53_2)"/>
<defs>
<filter id="filter0_d_53_2" x="0.821497" y="0" width="199.348" height="100.353" filterUnits="userSpaceOnUse" color-interpolation-filters="sRGB">
<feFlood flood-opacity="0" result="BackgroundImageFix"/>
<feColorMatrix in="SourceAlpha" type="matrix" values="0 0 0 0 0 0 0 0 0 0 0 0 0 0 0 0 0 0 127 0" result="hardAlpha"/>
<feOffset dy="6.1785"/>
<feGaussianBlur stdDeviation="3.08925"/>
<feComposite in2="hardAlpha" operator="out"/>
<feColorMatrix type="matrix" values="0 0 0 0 0 0 0 0 0 0 0 0 0 0 0 0 0 0 0.25 0"/>
<feBlend mode="normal" in2="BackgroundImageFix" result="effect1_dropShadow_53_2"/>
<feBlend mode="normal" in="SourceGraphic" in2="effect1_dropShadow_53_2" result="shape"/>
</filter>
<filter id="filter1_d_53_2" x="0.821497" y="0" width="199.348" height="100.353" filterUnits="userSpaceOnUse" color-interpolation-filters="sRGB">
<feFlood flood-opacity="0" result="BackgroundImageFix"/>
<feColorMatrix in="SourceAlpha" type="matrix" values="0 0 0 0 0 0 0 0 0 0 0 0 0 0 0 0 0 0 127 0" result="hardAlpha"/>
<feOffset dy="6.1785"/>
<feGaussianBlur stdDeviation="3.08925"/>
<feComposite in2="hardAlpha" operator="out"/>
<feColorMatrix type="matrix" values="0 0 0 0 0 0 0 0 0 0 0 0 0 0 0 0 0 0 0.25 0"/>
<feBlend mode="normal" in2="BackgroundImageFix" result="effect1_dropShadow_53_2"/>
<feBlend mode="normal" in="SourceGraphic" in2="effect1_dropShadow_53_2" result="shape"/>
</filter>
<linearGradient id="paint0_linear_53_2" x1="187.75" y1="4" x2="187.75" y2="13" gradientUnits="userSpaceOnUse">
<stop stop-color="#FFCB74"/>
<stop offset="1" stop-color="#2F2F2F"/>
</linearGradient>
<linearGradient id="paint1_linear_53_2" x1="187.75" y1="4" x2="187.75" y2="13" gradientUnits="userSpaceOnUse">
<stop stop-color="#FFCB74"/>
<stop offset="1" stop-color="#2F2F2F"/>
</linearGradient>
</defs>
</svg>
