<svg width="200" height="55" viewBox="0 0 200 95" fill="none" xmlns="http://www.w3.org/2000/svg">
<g filter="url(#filter0_d_25_12)">
<path fill-rule="evenodd" clip-rule="evenodd" d="M193 6.76923C193 10.5078 189.866 24 186 24C182.134 24 179 10.5078 179 6.76923C179 3.03069 182.134 0 186 0C189.866 0 193 3.03069 193 6.76923ZM188 62V28H183V62H188ZM126.116 37.3524C125.458 38.4188 125.129 39.6365 125.129 41.0056V60.1993H120.469V29.8684H124.971V34.4497H125.287C125.84 32.9489 126.84 31.7312 128.288 30.7965C129.737 29.8619 131.369 29.3945 133.186 29.3945C133.528 29.3945 133.956 29.4011 134.469 29.4143C134.983 29.4274 135.371 29.4472 135.634 29.4735V34.2127C135.476 34.1732 135.114 34.114 134.548 34.035C133.995 33.9428 133.409 33.8968 132.791 33.8968C131.316 33.8968 130 34.2061 128.841 34.8249C127.696 35.4304 126.788 36.273 126.116 37.3524ZM56.1795 60.8312C53.4413 60.8312 51.0387 60.1795 48.9719 58.8762C46.9183 57.573 45.3122 55.7497 44.1537 53.4064C43.0084 51.0632 42.4357 48.325 42.4357 45.1918C42.4357 42.0324 43.0084 39.2744 44.1537 36.918C45.3122 34.5616 46.9183 32.7317 48.9719 31.4284C51.0387 30.1252 53.4413 29.4735 56.1795 29.4735C58.9177 29.4735 61.3137 30.1252 63.3674 31.4284C65.4342 32.7317 67.0403 34.5616 68.1856 36.918C69.3441 39.2744 69.9233 42.0324 69.9233 45.1918C69.9233 48.325 69.3441 51.0632 68.1856 53.4064C67.0403 55.7497 65.4342 57.573 63.3674 58.8762C61.3137 60.1795 58.9177 60.8312 56.1795 60.8312ZM56.1795 56.6449C58.2594 56.6449 59.971 56.1117 61.3137 55.0454C62.6565 53.9791 63.6504 52.5771 64.2955 50.8394C64.9405 49.1017 65.2631 47.2192 65.2631 45.1918C65.2631 43.1645 64.9405 41.2754 64.2955 39.5246C63.6504 37.7737 62.6565 36.3585 61.3137 35.279C59.971 34.1995 58.2594 33.6598 56.1795 33.6598C54.0995 33.6598 52.3881 34.1995 51.0453 35.279C49.7025 36.3585 48.7086 37.7737 48.0635 39.5246C47.4185 41.2754 47.096 43.1645 47.096 45.1918C47.096 47.2192 47.4185 49.1017 48.0635 50.8394C48.7086 52.5771 49.7025 53.9791 51.0453 55.0454C52.3881 56.1117 54.0995 56.6449 56.1795 56.6449ZM24.298 74.1608C24.8246 73.0024 25.0879 71.5872 25.0879 69.9153V29.4739H29.9851L29.8761 57.5144V71.969C29.8761 74.1189 29.6227 74.5734 28.9899 75.7085C28.8632 75.9357 28.7214 76.1902 28.5633 76.4909C27.6155 78.2945 26.2793 79.6636 24.5548 80.5982C22.8302 81.5329 20.7963 82.0002 18.453 82.0002C16.2414 82.0002 14.2733 81.5987 12.5488 80.7957C10.8243 79.9795 9.46833 78.821 8.481 77.3203C7.49367 75.8195 7 74.0358 7 71.969H11.8182C11.8182 73.1143 12.1012 74.1148 12.6673 74.9704C13.2465 75.813 14.0364 76.4712 15.0369 76.9451C16.0374 77.419 17.1761 77.656 18.453 77.656C19.8616 77.656 21.0596 77.3598 22.0469 76.7674C23.0343 76.175 23.7846 75.3061 24.298 74.1608ZM98.0791 58.9947C99.5798 57.9152 100.686 56.6054 101.397 55.0651H101.712V60.1993H106.373V29.8684H101.712V47.7984C101.712 49.6941 101.298 51.2541 100.468 52.4783C99.6522 53.7026 98.6386 54.611 97.4275 55.2034C96.2295 55.7958 95.0512 56.092 93.8927 56.092C91.9576 56.092 90.3647 55.4338 89.1141 54.1173C87.8766 52.8009 87.2579 51.0368 87.2579 48.8252V29.8684H82.5977V49.1412C82.5977 51.7214 83.0189 53.8606 83.8615 55.5588C84.704 57.2439 85.8624 58.5077 87.3369 59.3502C88.8113 60.1795 90.4963 60.5942 92.392 60.5942C94.6826 60.5942 96.5783 60.061 98.0791 58.9947ZM154.855 30.8953C153.406 31.8299 152.327 33.0674 151.616 34.6076H151.221V29.8684H146.719V60.1993H151.379V41.9534C151.379 40.1894 151.715 38.6886 152.386 37.4512C153.058 36.2137 153.973 35.2724 155.131 34.6274C156.303 33.9823 157.632 33.6598 159.12 33.6598C161.279 33.6598 162.977 34.3312 164.214 35.674C165.452 37.0036 166.071 38.8598 166.071 41.2425V60.1993H170.731V40.9266C170.731 38.3463 170.303 36.2137 169.447 34.5287C168.592 32.8305 167.394 31.5667 165.853 30.7373C164.313 29.8948 162.516 29.4735 160.463 29.4735C158.172 29.4735 156.303 29.9474 154.855 30.8953Z" fill="#FFCB74"/>
</g>
<path d="M190 8C190 10.2091 188.209 12 186 12C183.791 12 182 10.2091 182 8C182 5.79086 183.791 4 186 4C188.209 4 190 5.79086 190 8Z" fill="url(#paint0_linear_25_12)"/>
<defs>
<filter id="filter0_d_25_12" x="0.821497" y="0" width="198.357" height="94.357" filterUnits="userSpaceOnUse" color-interpolation-filters="sRGB">
<feFlood flood-opacity="0" result="BackgroundImageFix"/>
<feColorMatrix in="SourceAlpha" type="matrix" values="0 0 0 0 0 0 0 0 0 0 0 0 0 0 0 0 0 0 127 0" result="hardAlpha"/>
<feOffset dy="6.1785"/>
<feGaussianBlur stdDeviation="3.08925"/>
<feComposite in2="hardAlpha" operator="out"/>
<feColorMatrix type="matrix" values="0 0 0 0 0 0 0 0 0 0 0 0 0 0 0 0 0 0 0.25 0"/>
<feBlend mode="normal" in2="BackgroundImageFix" result="effect1_dropShadow_25_12"/>
<feBlend mode="normal" in="SourceGraphic" in2="effect1_dropShadow_25_12" result="shape"/>
</filter>
<linearGradient id="paint0_linear_25_12" x1="186" y1="4" x2="186" y2="12" gradientUnits="userSpaceOnUse">
<stop stop-color="#2F2F2F"/>
<stop offset="1" stop-color="#FFCB74"/>
</linearGradient>
</defs>
</svg>
